<?xml version="1.0" encoding="UTF-8"?>
<svg width="24px" height="24px" viewBox="0 0 24 24" version="1.1" xmlns="http://www.w3.org/2000/svg" xmlns:xlink="http://www.w3.org/1999/xlink">
    <title>C40675C2-7FC9-441B-9113-7EED5FFF4BF8</title>
    <g id="Flyout-ULT/NAV/3rd-party" stroke="none" stroke-width="1" fill="none" fill-rule="evenodd">
        <g id="Desktop/ULT-Cancer-Selector_D" transform="translate(-1174.000000, -66.000000)" fill="#007DB8" fill-rule="nonzero">
            <g id="ULT/Cancer-Selector" transform="translate(225.000000, 45.000000)">
                <g id="icon/xclose/white" transform="translate(949.362305, 21.000000)">
                    <path d="M11.6367188,0 C18.0636354,0 23.2734375,5.37244444 23.2734375,12 C23.2734375,18.6275556 18.0636354,24 11.6367188,24 C5.20980208,24 0,18.6275556 0,12 C0,5.37244444 5.20980208,0 11.6367188,0 Z M11.6367188,2 C6.28093247,2 1.93945312,6.47701394 1.93945312,12 C1.93945312,17.5229861 6.28093247,22 11.6367188,22 C16.992505,22 21.3339844,17.5229861 21.3339844,12 C21.3339844,6.47701394 16.992505,2 11.6367188,2 Z M15.1722527,8.46446609 C15.5509544,8.84316787 15.5413704,9.46674881 15.1508461,9.8572731 L13.008,12 L15.1508461,14.1427269 C15.5413704,14.5332512 15.5509544,15.1568321 15.1722527,15.5355339 C14.7935509,15.9142357 14.1699699,15.9046516 13.7794456,15.5141274 L11.636,13.371 L9.49399185,15.5141274 C9.10346756,15.9046516 8.47988662,15.9142357 8.10118484,15.5355339 C7.72248307,15.1568321 7.73206711,14.5332512 8.1225914,14.1427269 L10.265,12 L8.1225914,9.8572731 C7.73206711,9.46674881 7.72248307,8.84316787 8.10118484,8.46446609 C8.47988662,8.08576432 9.10346756,8.09534836 9.49399185,8.48587265 L11.636,10.628 L13.7794456,8.48587265 C14.1699699,8.09534836 14.7935509,8.08576432 15.1722527,8.46446609 Z" id="xclose"></path>
                </g>
            </g>
        </g>
    </g>
</svg>